<svg xmlns="http://www.w3.org/2000/svg" viewBox="0 0 45.95 45.95"><defs><style>.cls-1{fill:#d13133;stroke:#fff;stroke-miterlimit:10;stroke-width:0.3px;}</style></defs><title>icon_cert</title><g id="Layer_2" data-name="Layer 2"><g id="_1280" data-name="1280"><g id="Body"><path class="cls-1" d="M6,17.09H8.71a.89.89,0,0,0,0-1.78H6a.89.89,0,1,0,0,1.78Z"/><path class="cls-1" d="M11,16.2a.89.89,0,1,0,.89-.89.89.89,0,0,0-.89.89Z"/><path class="cls-1" d="M37.24,17.09h2.68a.89.89,0,1,0,0-1.78H37.24a.89.89,0,1,0,0,1.78Z"/><path class="cls-1" d="M44,33.32H36.08a6.37,6.37,0,0,0-12.74,0H1.93V1.93H44V33.32ZM37.63,40.8l-1.45.58a.88.88,0,0,0-.5.5l-.58,1.44-3.64-3.65a6.29,6.29,0,0,0,3.07-2l3.1,3.09ZM25.12,33.54a4.59,4.59,0,1,1,4.59,4.6,4.6,4.6,0,0,1-4.59-4.6Zm-.81,9.78-.57-1.44a.88.88,0,0,0-.5-.5l-1.45-.58,3.1-3.09a6.29,6.29,0,0,0,3.07,2l-3.65,3.65ZM44.91.15H1A.89.89,0,0,0,.15,1V34.21A.89.89,0,0,0,1,35.1H23.53a6.44,6.44,0,0,0,.37,1.07L19.57,40.5a.9.9,0,0,0-.24.81.91.91,0,0,0,.54.65l2.35.93.94,2.35a.89.89,0,0,0,1.46.3l5.09-5.09,5.09,5.09a.91.91,0,0,0,.81.25.89.89,0,0,0,.65-.55l.94-2.35L39.55,42a.91.91,0,0,0,.54-.65.9.9,0,0,0-.24-.81l-4.33-4.33a6.44,6.44,0,0,0,.37-1.07h9a.88.88,0,0,0,.89-.89V1a.89.89,0,0,0-.89-.89Z"/><path class="cls-1" d="M15,9.07H31a.9.9,0,0,0,0-1.79H15a.9.9,0,0,0,0,1.79Z"/><path class="cls-1" d="M28.33,12.63a.89.89,0,0,0-.89-.89H22.09a.9.9,0,1,0,0,1.79h5.35a.89.89,0,0,0,.89-.9Z"/><path class="cls-1" d="M6,13.53h5.35a.9.9,0,0,0,0-1.79H6a.9.9,0,1,0,0,1.79Z"/><path class="cls-1" d="M15,13.53h3.57a.9.9,0,0,0,0-1.79H15a.9.9,0,0,0,0,1.79Z"/><path class="cls-1" d="M38.14,13.53h1.78a.9.9,0,0,0,0-1.79H38.14a.9.9,0,1,0,0,1.79Z"/><path class="cls-1" d="M30.11,12.63a.89.89,0,0,0,.89.9h3.57a.9.9,0,0,0,0-1.79H31a.89.89,0,0,0-.89.89Z"/><path class="cls-1" d="M26.15,17.09H30.9a.89.89,0,1,0,0-1.78H26.15a.89.89,0,0,0,0,1.78Z"/><path class="cls-1" d="M22.09,16.2a.89.89,0,1,0,.89-.89.89.89,0,0,0-.89.89Z"/><path class="cls-1" d="M33.18,16.2a.9.9,0,1,0,.89-.89.89.89,0,0,0-.89.89Z"/><path class="cls-1" d="M15.05,15.31a.89.89,0,0,0,0,1.78h4.76a.89.89,0,1,0,0-1.78Z"/><path class="cls-1" d="M6,20.66H39.92a.89.89,0,0,0,0-1.78H6a.89.89,0,1,0,0,1.78Z"/><path class="cls-1" d="M20.3,22.44H15a.9.9,0,0,0,0,1.79H20.3a.9.9,0,0,0,0-1.79Z"/><path class="cls-1" d="M6,24.23h5.35a.9.9,0,0,0,0-1.79H6a.9.9,0,1,0,0,1.79Z"/><path class="cls-1" d="M20.3,26a.89.89,0,1,0,.89.89A.89.89,0,0,0,20.3,26Z"/><path class="cls-1" d="M6,27.79h10.7a.89.89,0,0,0,0-1.78H6a.89.89,0,1,0,0,1.78Z"/><path class="cls-1" d="M29.71,34.44a.9.9,0,1,1,.89-.9.89.89,0,0,1-.89.9Zm0-3.57a2.68,2.68,0,1,0,2.67,2.67,2.68,2.68,0,0,0-2.67-2.67Z"/></g></g></g></svg>