<svg xmlns="http://www.w3.org/2000/svg" viewBox="0 0 419.53 202.56"><defs><style>.cls-1,.cls-2{fill:#fff;stroke:#cc2f31;stroke-miterlimit:10;}.cls-1{stroke-width:4px;}.cls-2{stroke-width:2px;}</style></defs><title>icon_contact</title><g id="Layer_2" data-name="Layer 2"><g id="_1280" data-name="1280"><g id="Body"><path class="cls-1" d="M348.74,75.43a3.69,3.69,0,1,0,2.62,1.08,3.78,3.78,0,0,0-2.62-1.08Z"/><path class="cls-1" d="M410,13a3.58,3.58,0,0,1,.15,1V71.73a3.48,3.48,0,0,1-.09.79L378.5,35.65,410,13ZM354.66,43.69,308.45,10.34H401L354.66,43.69ZM299.27,72.52a4.15,4.15,0,0,1-.08-.79V14a3.52,3.52,0,0,1,.18-1.13l31.48,22.71-31.58,36.9ZM412.9,5l-.13-.1a11.07,11.07,0,0,0-6.34-2H302.88a11,11,0,0,0-6,1.77c-.14.08-.27.17-.4.26a11.1,11.1,0,0,0-4.7,9.06V71.73a11.11,11.11,0,0,0,11.09,11.1h27.37a3.7,3.7,0,0,0,0-7.4H306.51L336.86,40l15.63,11.28a3.7,3.7,0,0,0,4.33,0L372.47,40,402.8,75.43H365a3.7,3.7,0,1,0,0,7.4h41.42a11.11,11.11,0,0,0,11.1-11.1V14a11.07,11.07,0,0,0-4.63-9Z"/><path class="cls-1" d="M40.28,144.76a3.69,3.69,0,1,0,2.62,1.08,3.71,3.71,0,0,0-2.62-1.08Z"/><path class="cls-1" d="M97.63,130.27a14.35,14.35,0,0,0-20.29,0l-1.27,1.27a4.53,4.53,0,0,1-6.39,0L55.74,117.6a4.51,4.51,0,0,1,0-6.4L57,109.93a14.36,14.36,0,0,0,0-20.28L37.52,70.16a14.36,14.36,0,0,0-20.28,0l-4.66,4.67a36.2,36.2,0,0,0,0,51.15l12.71,12.71a3.7,3.7,0,0,0,5.23-5.23L17.81,120.75a28.8,28.8,0,0,1,0-40.69l4.66-4.67a7,7,0,0,1,9.82,0L51.78,94.88a7,7,0,0,1,0,9.82L50.51,106a12.68,12.68,0,0,0-1.27,1.49L33.85,92.07a3.7,3.7,0,0,0-5.23,5.23L47.1,115.78a11.76,11.76,0,0,0,3.41,7l13.94,13.94a11.94,11.94,0,0,0,16.85,0l1.27-1.27a7,7,0,0,1,9.83,0L111.88,155a6.93,6.93,0,0,1,0,9.82l-2.65,2.65L91.5,149.72A3.7,3.7,0,1,0,86.27,155l17.48,17.48a28.82,28.82,0,0,1-37.22-3L57,159.89a3.7,3.7,0,1,0-5.23,5.23l9.58,9.58a36.23,36.23,0,0,0,51.15,0l4.66-4.66a14.35,14.35,0,0,0,0-20.29L97.63,130.27Z"/><path class="cls-2" d="M393,201.56a3,3,0,0,1-2.12-.88,2.82,2.82,0,0,1-.38-.46,3.1,3.1,0,0,1-.27-.51,2.33,2.33,0,0,1-.17-.57,2.86,2.86,0,0,1-.06-.58,3,3,0,0,1,.88-2.12,3.1,3.1,0,0,1,4.24,0,2.69,2.69,0,0,1,.37.45,3.74,3.74,0,0,1,.28.52,3.62,3.62,0,0,1,.17.56,3,3,0,0,1,.06.59,2.86,2.86,0,0,1-.06.58,3.74,3.74,0,0,1-.17.57,3.15,3.15,0,0,1-.28.51,3.38,3.38,0,0,1-.37.46,2.76,2.76,0,0,1-.46.37,3.25,3.25,0,0,1-.52.28,3.62,3.62,0,0,1-.56.17A2.86,2.86,0,0,1,393,201.56Z"/><path class="cls-2" d="M369.78,198.56a3,3,0,0,1,3-3h0a3,3,0,0,1,3,3h0a3,3,0,0,1-3,3h0A3,3,0,0,1,369.78,198.56Zm-20.25,0a3,3,0,0,1,3-3h0a3,3,0,0,1,3,3h0a3,3,0,0,1-3,3h0A3,3,0,0,1,349.53,198.56Zm-20.24,0a3,3,0,0,1,3-3h0a3,3,0,0,1,3,3h0a3,3,0,0,1-3,3h0A3,3,0,0,1,329.29,198.56Zm-20.24,0a3,3,0,0,1,3-3h0a3,3,0,0,1,3,3h0a3,3,0,0,1-3,3h0A3,3,0,0,1,309.05,198.56Zm-20.24,0a3,3,0,0,1,3-3h0a3,3,0,0,1,3,3h0a3,3,0,0,1-3,3h0A3,3,0,0,1,288.81,198.56Zm-20.24,0a3,3,0,0,1,3-3h0a3,3,0,0,1,3,3h0a3,3,0,0,1-3,3h0A3,3,0,0,1,268.57,198.56Zm-20.24,0a3,3,0,0,1,3-3h0a3,3,0,0,1,3,3h0a3,3,0,0,1-3,3h0A3,3,0,0,1,248.33,198.56Zm-20.25,0a3,3,0,0,1,3-3h0a3,3,0,0,1,3,3h0a3,3,0,0,1-3,3h0A3,3,0,0,1,228.08,198.56Zm-20.24,0a3,3,0,0,1,3-3h0a3,3,0,0,1,3,3h0a3,3,0,0,1-3,3h0A3,3,0,0,1,207.84,198.56Zm-20.24,0a3,3,0,0,1,3-3h0a3,3,0,0,1,3,3h0a3,3,0,0,1-3,3h0A3,3,0,0,1,187.6,198.56Zm-20.24,0a3,3,0,0,1,3-3h0a3,3,0,0,1,3,3h0a3,3,0,0,1-3,3h0A3,3,0,0,1,167.36,198.56Zm-20.24,0a3,3,0,0,1,3-3h0a3,3,0,0,1,3,3h0a3,3,0,0,1-3,3h0A3,3,0,0,1,147.12,198.56Zm-20.24,0a3,3,0,0,1,3-3h0a3,3,0,0,1,3,3h0a3,3,0,0,1-3,3h0A3,3,0,0,1,126.88,198.56Z"/><path class="cls-2" d="M25.67,42.91a3,3,0,0,1,3-3h0a3,3,0,0,1,3,3h0a3,3,0,0,1-3,3h0A3,3,0,0,1,25.67,42.91Zm0-19.45a3,3,0,0,1,3-3h0a3,3,0,0,1,3,3h0a3,3,0,0,1-3,3h0A3,3,0,0,1,25.67,23.46Z"/><path class="cls-2" d="M28.67,7a3,3,0,0,1-.59-.06,2.26,2.26,0,0,1-.56-.17A2.86,2.86,0,0,1,27,6.5a3.07,3.07,0,0,1-.83-.83,3.2,3.2,0,0,1-.27-.52,2.78,2.78,0,0,1-.17-.56A2.86,2.86,0,0,1,25.67,4a3,3,0,0,1,.88-2.13A2.69,2.69,0,0,1,27,1.51a3.74,3.74,0,0,1,.52-.28,3.62,3.62,0,0,1,.56-.17,2.88,2.88,0,0,1,1.17,0,3.74,3.74,0,0,1,.57.17,3.15,3.15,0,0,1,.51.28,2.76,2.76,0,0,1,.46.37A3,3,0,0,1,31.67,4a2.86,2.86,0,0,1-.06.58,3.62,3.62,0,0,1-.17.56,3.22,3.22,0,0,1-.65,1,3.38,3.38,0,0,1-.46.37,2.49,2.49,0,0,1-.51.27,2.33,2.33,0,0,1-.57.17A2.86,2.86,0,0,1,28.67,7Z"/><path class="cls-2" d="M268.57,4a3,3,0,0,1,3-3h0a3,3,0,0,1,3,3h0a3,3,0,0,1-3,3h0A3,3,0,0,1,268.57,4ZM248.33,4a3,3,0,0,1,3-3h0a3,3,0,0,1,3,3h0a3,3,0,0,1-3,3h0A3,3,0,0,1,248.33,4ZM228.08,4a3,3,0,0,1,3-3h0a3,3,0,0,1,3,3h0a3,3,0,0,1-3,3h0A3,3,0,0,1,228.08,4ZM207.84,4a3,3,0,0,1,3-3h0a3,3,0,0,1,3,3h0a3,3,0,0,1-3,3h0A3,3,0,0,1,207.84,4ZM187.6,4a3,3,0,0,1,3-3h0a3,3,0,0,1,3,3h0a3,3,0,0,1-3,3h0A3,3,0,0,1,187.6,4ZM167.36,4a3,3,0,0,1,3-3h0a3,3,0,0,1,3,3h0a3,3,0,0,1-3,3h0A3,3,0,0,1,167.36,4ZM147.12,4a3,3,0,0,1,3-3h0a3,3,0,0,1,3,3h0a3,3,0,0,1-3,3h0A3,3,0,0,1,147.12,4ZM126.88,4a3,3,0,0,1,3-3h0a3,3,0,0,1,3,3h0a3,3,0,0,1-3,3h0A3,3,0,0,1,126.88,4ZM106.64,4a3,3,0,0,1,3-3h0a3,3,0,0,1,3,3h0a3,3,0,0,1-3,3h0A3,3,0,0,1,106.64,4ZM86.39,4a3,3,0,0,1,3-3h0a3,3,0,0,1,3,3h0a3,3,0,0,1-3,3h0A3,3,0,0,1,86.39,4ZM66.15,4a3,3,0,0,1,3-3h0a3,3,0,0,1,3,3h0a3,3,0,0,1-3,3h0A3,3,0,0,1,66.15,4ZM45.91,4a3,3,0,0,1,3-3h0a3,3,0,0,1,3,3h0a3,3,0,0,1-3,3h0A3,3,0,0,1,45.91,4Z"/><path class="cls-2" d="M390,179.1a3,3,0,0,1,3-3h0a3,3,0,0,1,3,3h0a3,3,0,0,1-3,3h0A3,3,0,0,1,390,179.1Zm0-19.45a3,3,0,0,1,3-3h0a3,3,0,0,1,3,3h0a3,3,0,0,1-3,3h0A3,3,0,0,1,390,159.65Zm0-19.46a3,3,0,0,1,3-3h0a3,3,0,0,1,3,3h0a3,3,0,0,1-3,3h0A3,3,0,0,1,390,140.19Zm0-19.45a3,3,0,0,1,3-3h0a3,3,0,0,1,3,3h0a3,3,0,0,1-3,3h0A3,3,0,0,1,390,120.74Zm0-19.46a3,3,0,0,1,3-3h0a3,3,0,0,1,3,3h0a3,3,0,0,1-3,3h0A3,3,0,0,1,390,101.28Z"/></g></g></g></svg>