<svg xmlns="http://www.w3.org/2000/svg" viewBox="0 0 25.98 28.47"><defs><style>.cls-1{fill:#fff;}</style></defs><title>logo</title><g id="Layer_2" data-name="Layer 2"><g id="_1280" data-name="1280"><g id="Body"><path class="cls-1" d="M23.48,9.89,7.52.68A5,5,0,0,0,0,5V23.45a5,5,0,0,0,7.52,4.34l11.16-6.44V14.49c0-1.39-.65-2.2-1.71-2.2-1.76,0-1.93,1.38-1.93,3.46v5.54a.75.75,0,0,1-.75.75H11.7a.74.74,0,0,1-.75-.75V14.74c0-1.51-.44-2.45-1.55-2.45-1.47,0-2.09.86-2.09,3.49v5.51a.75.75,0,0,1-.75.75H4a.75.75,0,0,1-.75-.75V9.57A.76.76,0,0,1,4,8.82h2.6a.76.76,0,0,1,.75.75V11a4,4,0,0,1,3.51-2.13A3.82,3.82,0,0,1,14,10.09a.76.76,0,0,0,1.13.06,4.39,4.39,0,0,1,3.26-1.33c4,0,4.41,3.1,4.41,5.55V19l.71-.4a5,5,0,0,0,0-8.69"/></g></g></g></svg>